<?xml version="1.0" standalone="no"?><!DOCTYPE svg PUBLIC "-//W3C//DTD SVG 1.1//EN" "http://www.w3.org/Graphics/SVG/1.1/DTD/svg11.dtd"><svg t="1696168153184" class="icon" viewBox="0 0 1024 1024" version="1.1" xmlns="http://www.w3.org/2000/svg" p-id="13880" xmlns:xlink="http://www.w3.org/1999/xlink" width="200" height="200"><path d="M375.3728 502.6816c-10.9056-66.048-67.456-116.352-135.552-116.352C163.9424 386.304 102.4 448.8448 102.4 525.9776 102.4 603.0848 163.9424 665.6 239.8208 665.6H881.1776v-0.64C932.7104 659.2 972.8 614.784 972.8 560.896c0-57.856-46.1568-104.704-103.0656-104.704-2.304 0-4.5568 0.0512-6.8096 0.2048-23.7312-41.856-68.224-70.0416-119.168-70.0416-68.096 0-124.6464 50.3296-135.552 116.352h-232.832z" fill="#F8D2A1" p-id="13881"></path><path d="M711.168 399.5904c-32.384-111.2832-133.7344-192.4608-253.7472-192.4608-146.0992 0-264.5504 120.3456-264.5504 268.8 0 13.4656 0.9728 26.7008 2.8672 39.6544C128.5888 524.7488 76.8 583.2192 76.8 653.952 76.8 731.1104 138.3424 793.6 214.2208 793.6H855.5776v-0.64C907.1104 787.2 947.2 742.784 947.2 688.896c0-48.3328-32.256-89.0368-76.0576-101.0944a141.1584 141.1584 0 0 0 10.0352-52.48c0-77.1328-61.5424-139.648-137.4208-139.648a135.68 135.68 0 0 0-32.5888 3.9424z" fill="#4C4E58" p-id="13882"></path><path d="M568.0128 713.6v22.4h-112v-22.4h112z m0-44.8V691.2h-112v-22.4h112z m0-67.2v44.8h-112V601.6h112zM512 332.8l179.2 179.2h-123.2128v67.2h-112V512H332.8l179.2-179.2z" fill="#FFFFFF" p-id="13883"></path></svg>